# xmcd
#
# Track frame offsets: 
#        150
#        28328
#        52128
#        69427
#        85761
#        115100
#
# Disc length: 1816 seconds
#
# Revision: 0
# Processed by: cddbd v1.5.1PL0 Copyright (c) Steve Scherf et al.
# Submitted via: ExactAudioCopy v0.95a3
#
DISCID=4d071606
DTITLE=The Blues Pie Factory - The Blues Pie Factory
DYEAR=2004
DGENRE=Blues
TTITLE0=Leave My Girl Alone
TTITLE1=Love Flows
TTITLE2=Papa's Got a Brand New Bag
TTITLE3=Walkin' Blues
TTITLE4=Baby Can't You See
TTITLE5=The Riverboat Song
EXTD=
EXTT0=
EXTT1=
EXTT2=
EXTT3=
EXTT4=
EXTT5=
PLAYORDER=
